<svg xmlns="http://www.w3.org/2000/svg" xml:space="preserve" style="fill-rule:evenodd;clip-rule:evenodd;stroke-linejoin:round;stroke-miterlimit:2" viewBox="0 0 887 1462">
  <path d="M806.826 244.657h886.576v1461.94H806.826z" style="fill:none" transform="translate(-806.826 -244.657)"/>
  <path d="M1252.04 960.576c18.04 0 32.68 14.646 32.68 32.686 0 18.038-14.64 32.688-32.68 32.688s-32.69-14.65-32.69-32.688c0-18.04 14.65-32.686 32.69-32.686Zm0 10.417c-12.29 0-22.27 9.978-22.27 22.269 0 12.288 9.98 22.268 22.27 22.268s22.27-9.98 22.27-22.268c0-12.291-9.98-22.269-22.27-22.269Z" style="fill:#8e8e8e" transform="translate(-802.841 -244)"/>
  <path d="M1229.9 896.179v49.071c0 6.393-2.86 11.583-6.39 11.583-3.52 0-6.39-5.19-6.39-11.583v-49.071c0-6.392 2.87-11.582 6.39-11.582 3.53 0 6.39 5.19 6.39 11.582Zm-4.98 0c0-1.41-.63-2.554-1.41-2.554-.77 0-1.41 1.144-1.41 2.554v49.071c0 1.41.64 2.555 1.41 2.555.78 0 1.41-1.145 1.41-2.555v-49.071Z" style="fill:#8e8e8e" transform="matrix(2.08966 .07214 -.0398 1.15309 -2068.426 -996.616)"/>
  <path d="M1229.9 896.179v49.071c0 6.393-2.86 11.583-6.39 11.583-3.52 0-6.39-5.19-6.39-11.583v-49.071c0-6.392 2.87-11.582 6.39-11.582 3.53 0 6.39 5.19 6.39 11.582Zm-4.98 0c0-1.41-.63-2.554-1.41-2.554-.77 0-1.41 1.144-1.41 2.554v49.071c0 1.41.64 2.555 1.41 2.555.78 0 1.41-1.145 1.41-2.555v-49.071Z" style="fill:#8e8e8e" transform="matrix(2.09074 .02694 -.01487 1.15369 -2094.706 -820.944)"/>
  <path d="M1229.9 896.179v49.071c0 6.393-2.86 11.583-6.39 11.583-3.52 0-6.39-5.19-6.39-11.583v-49.071c0-6.392 2.87-11.582 6.39-11.582 3.53 0 6.39 5.19 6.39 11.582Zm-4.98 0c0-1.41-.63-2.554-1.41-2.554-.77 0-1.41 1.144-1.41 2.554v49.071c0 1.41.64 2.555 1.41 2.555.78 0 1.41-1.145 1.41-2.555v-49.071Z" style="fill:#8e8e8e" transform="matrix(2.08985 .0665 -.0367 1.1532 -2077.526 -750.223)"/>
  <path d="M1229.9 896.179v49.071c0 6.393-2.86 11.583-6.39 11.583-3.52 0-6.39-5.19-6.39-11.583v-49.071c0-6.392 2.87-11.582 6.39-11.582 3.53 0 6.39 5.19 6.39 11.582Zm-4.98 0c0-1.41-.63-2.554-1.41-2.554-.77 0-1.41 1.144-1.41 2.554v49.071c0 1.41.64 2.555 1.41 2.555.78 0 1.41-1.145 1.41-2.555v-49.071Z" style="fill:#8e8e8e" transform="matrix(2.09051 .04065 -.02243 1.15356 -2087.466 -598.145)"/>
  <path d="M1229.9 896.179v49.071c0 6.393-2.86 11.583-6.39 11.583-3.52 0-6.39-5.19-6.39-11.583v-49.071c0-6.392 2.87-11.582 6.39-11.582 3.53 0 6.39 5.19 6.39 11.582Zm-4.98 0c0-1.41-.63-2.554-1.41-2.554-.77 0-1.41 1.144-1.41 2.554v49.071c0 1.41.64 2.555 1.41 2.555.78 0 1.41-1.145 1.41-2.555v-49.071Z" style="fill:#8e8e8e" transform="matrix(2.09038 -.04685 .02585 1.15349 -2134.766 -368.68)"/>
  <path d="M1228.6 904.006v33.417c0 10.713-2.28 19.41-5.09 19.41-2.8 0-5.08-8.697-5.08-19.41v-33.417c0-10.712 2.28-19.409 5.08-19.409 2.81 0 5.09 8.697 5.09 19.409Zm-2.37 0c0-5.729-1.22-10.381-2.72-10.381-1.5 0-2.71 4.652-2.71 10.381v33.417c0 5.73 1.21 10.382 2.71 10.382s2.72-4.652 2.72-10.382v-33.417Z" style="fill:#8e8e8e" transform="matrix(4.40604 0 0 1.15378 -4939.106 -969.973)"/>
  <path d="M1228.6 904.006v33.417c0 10.713-2.28 19.41-5.09 19.41-2.8 0-5.08-8.697-5.08-19.41v-33.417c0-10.712 2.28-19.409 5.08-19.409 2.81 0 5.09 8.697 5.09 19.409Zm-2.37 0c0-5.729-1.22-10.381-2.72-10.381-1.5 0-2.71 4.652-2.71 10.381v33.417c0 5.73 1.21 10.382 2.71 10.382s2.72-4.652 2.72-10.382v-33.417Z" style="fill:#8e8e8e" transform="matrix(4.40569 -.05484 .01436 1.15369 -4952.906 -781.257)"/>
  <path d="M1228.6 904.006v33.417c0 10.713-2.28 19.41-5.09 19.41-2.8 0-5.08-8.697-5.08-19.41v-33.417c0-10.712 2.28-19.409 5.08-19.409 2.81 0 5.09 8.697 5.09 19.409Zm-2.37 0c0-5.729-1.22-10.381-2.72-10.381-1.5 0-2.71 4.652-2.71 10.381v33.417c0 5.73 1.21 10.382 2.71 10.382s2.72-4.652 2.72-10.382v-33.417Z" style="fill:#8e8e8e" transform="matrix(4.40554 -.06633 .01737 1.15365 -4958.486 -647.884)"/>
  <path d="M1228.6 904.006v33.417c0 10.713-2.28 19.41-5.09 19.41-2.8 0-5.08-8.697-5.08-19.41v-33.417c0-10.712 2.28-19.409 5.08-19.409 2.81 0 5.09 8.697 5.09 19.409Zm-2.37 0c0-5.729-1.22-10.381-2.72-10.381-1.5 0-2.71 4.652-2.71 10.381v33.417c0 5.73 1.21 10.382 2.71 10.382s2.72-4.652 2.72-10.382v-33.417Z" style="fill:#8e8e8e" transform="matrix(4.40221 -.1835 .04805 1.15278 -4980.956 -383.873)"/>
  <path d="M1228.6 904.006v33.417c0 10.713-2.28 19.41-5.09 19.41-2.8 0-5.08-8.697-5.08-19.41v-33.417c0-10.712 2.28-19.409 5.08-19.409 2.81 0 5.09 8.697 5.09 19.409Zm-2.37 0c0-5.729-1.22-10.381-2.72-10.381-1.5 0-2.71 4.652-2.71 10.381v33.417c0 5.73 1.21 10.382 2.71 10.382s2.72-4.652 2.72-10.382v-33.417Z" style="fill:#8e8e8e" transform="matrix(4.40563 .05943 -.01556 1.15368 -4928.566 -559.963)"/>
  <path d="M1228.6 904.006v33.417c0 10.713-2.28 19.41-5.09 19.41-2.8 0-5.08-8.697-5.08-19.41v-33.417c0-10.712 2.28-19.409 5.08-19.409 2.81 0 5.09 8.697 5.09 19.409Zm-2.37 0c0-5.729-1.22-10.381-2.72-10.381-1.5 0-2.71 4.652-2.71 10.381v33.417c0 5.73 1.21 10.382 2.71 10.382s2.72-4.652 2.72-10.382v-33.417Z" style="fill:#8e8e8e" transform="matrix(4.40487 .10124 -.02651 1.15348 -4918.556 -488.288)"/>
  <path d="M1456.18 1654.8h-401.97c-71.239 0-111.254-52.06-111.254-94.19v-112.16c0-27.25 29.032-49.71 36.325-59.26.785-1.02.776-2.17 0-3.2-6.327-8.43-37.961-22.53-37.961-48.28 0-31.06-2.27-98.02-2.27-144.69s24.611-60.86 49.934-60.86h184.026c14.17 0 21.57-8.05 21.57-17.57v-45.58c0-2.98-2.32-3.52-4.12-3.52h-16.66c-1.88 0-4.15-1.92-4.15-3.8v-45.24c0-2.13 1.09-4.43 4.58-4.43h161.93c3.49 0 4.58 2.3 4.58 4.43v45.24c0 1.88-2.28 3.8-4.15 3.8h-16.66c-1.8 0-4.12.54-4.12 3.52v45.58c0 9.52 7.4 17.57 21.57 17.57h184.03c25.32 0 49.93 14.19 49.93 60.86s-2.27 113.63-2.27 144.69c0 25.75-31.63 39.85-37.96 48.28-.78 1.03-.79 2.18 0 3.2 7.29 9.55 36.32 32.01 36.32 59.26v112.16c0 42.13-40.01 94.19-111.25 94.19Zm-63.54-89.92c75.55 0 94.22-33.34 94.22-62.51 0-29.17-45.86-89.33-59.02-108.92-4.04-6.01-12.7-10.26-19.94-10.26h-306.1c-7.24 0-15.91 4.25-19.94 10.26-13.16 19.59-59.02 79.75-59.02 108.92s18.66 62.51 94.22 62.51h275.58Z" style="fill:#c73f05" transform="translate(-806 -244)"/>
  <path d="M942.306 1316.15s-2.958-181.05 72.144-181.53c75.1-.47-39.615-.48-39.615-.48s-30.068 6.53-34.243 37.98c-4.176 31.46 1.2 132.61 1.714 144.03ZM1171.32 1063.97c7.86-29.86-6.17-50.32 42.36-50.09 18.75.1-42.83-1.9-42.83-1.9s-1.92 25.34.47 51.99ZM945.301 1561.2s-.196-128.65 36.228-173.28c-22.416 21.11-36.705 46.76-36.705 46.76l.477 126.52ZM1424.48 1387.28s73.27 74.02 72.19 119.22c-1.09 45.76-43.94 57.15-75.22 57.15-31.29 0 57.44 7.02 66.3-57.25 4.02-27.84-63.27-119.12-63.27-119.12Z" style="fill:#f96424" transform="translate(-806 -244)"/>
  <path d="M1320.5 1065.01s19.11-5.04 18.75-47.14c-.02-1.75 1.14 47.08 1.14 47.08l-19.89.06ZM1529.14 1386.55s43.23-44.59 39.19-150.89c-.6 18.19 1.19 110.66 1.19 110.66-11.15 16.8-24.84 29.88-40.38 40.23ZM1390 1653.86s181.05 30.96 178.64-162.33c-.69-54.79-.61 80.8-.61 80.8-7.72 43.91-59.53 82.02-96.46 82.58l-81.57-1.05ZM1023.3 1487.1c7.95-37.29 44.69-95.75 60.98-108.48 14.19-11.08 207.39 4.26 207.59 4.26.2 0-197.85 1.91-197.85 1.91-8.1-1.41-44.32 53.62-70.72 102.31Z" style="fill:#a13304" transform="translate(-806 -244)"/>
  <path d="M1191.43 1068.76c-.21-.05-.7-.14-.97-.14h-16.66c-1.63 0-3.46-.75-4.86-1.99-1.5-1.34-2.42-3.19-2.42-4.94v-45.24c0-2.18.79-4.42 2.61-5.91 1.17-.95 2.8-1.65 5.1-1.65h161.93c2.3 0 3.93.7 5.1 1.65 1.82 1.49 2.61 3.73 2.61 5.91v45.24c0 1.75-.92 3.6-2.42 4.94-1.4 1.24-3.24 1.99-4.86 1.99h-16.66c-.27 0-.76.09-.97.14-.01.07-.02.17-.02.25v45.58c0 8.01 6.51 14.44 18.44 14.44h184.03c13.48 0 26.75 3.86 36.68 13.85 9.75 9.83 16.38 25.7 16.38 50.14 0 46.67-2.28 113.63-2.28 144.69 0 13.81-8.31 24.6-17.64 32.96-8.32 7.46-17.44 12.83-20.73 16.92 3.78 4.79 12.64 12.66 20.63 22.64 8.6 10.75 16.11 23.88 16.11 38.22v112.16c0 43.4-40.99 97.31-114.38 97.31h-401.97c-73.392 0-114.379-53.91-114.379-97.31v-112.16c0-14.34 7.514-27.47 16.112-38.22 7.985-9.98 16.847-17.85 20.626-22.64-3.292-4.09-12.405-9.46-20.727-16.92-9.334-8.36-17.647-19.15-17.647-32.96 0-31.06-2.27-98.02-2.27-144.69 0-24.44 6.621-40.31 16.379-50.14 9.926-9.99 23.193-13.85 36.68-13.85h184.026c11.93 0 18.44-6.43 18.44-14.44v-45.58c0-.08-.01-.18-.02-.25Zm146.19-7.2v-45.11c0-.37 0-.81-.31-1.06-.25-.21-.64-.25-1.15-.25h-161.93c-.51 0-.89.04-1.15.25-.31.25-.31.69-.31 1.06v45.11c.06.08.21.3.33.4.22.19.45.41.7.41h16.66c1.83 0 3.92.5 5.34 1.85 1.07 1.02 1.9 2.5 1.9 4.79v45.58c0 11.02-8.28 20.69-24.69 20.69H988.984c-11.836 0-23.535 3.24-32.246 12.01-8.879 8.94-14.563 23.49-14.563 45.73 0 46.67 2.27 113.63 2.27 144.69 0 11.94 7.504 21.08 15.569 28.31 8.889 7.97 18.533 13.79 21.766 18.09 1.691 2.25 1.694 4.74-.016 6.98-3.655 4.78-12.752 12.81-20.94 23.04-7.742 9.69-14.743 21.41-14.743 34.32v112.16c0 40.85 39.042 91.06 108.129 91.06h401.97c69.09 0 108.13-50.21 108.13-91.06v-112.16c0-12.91-7-24.63-14.74-34.32-8.19-10.23-17.29-18.26-20.94-23.04-1.71-2.24-1.71-4.73-.02-6.98 3.23-4.3 12.88-10.12 21.77-18.09 8.06-7.23 15.56-16.37 15.56-28.31 0-31.06 2.28-98.02 2.28-144.69 0-22.24-5.69-36.79-14.57-45.73-8.71-8.77-20.41-12.01-32.24-12.01h-184.03c-16.41 0-24.69-9.67-24.69-20.69v-45.58c0-2.29.83-3.77 1.9-4.79 1.42-1.35 3.51-1.85 5.34-1.85h16.66c.25 0 .48-.22.7-.41.12-.1.27-.32.33-.4Z" style="fill:#080605" transform="translate(-806 -244)"/>
  <path d="M1061.58 1222.97h17.21l22.46 33v-33h17.37v59.65h-17.37l-22.34-32.75v32.75h-17.33v-59.65ZM1128.55 1252.84c0-9.74 2.71-17.32 8.14-22.75 5.43-5.42 12.98-8.14 22.66-8.14 9.93 0 17.58 2.67 22.95 8 5.37 5.33 8.06 12.8 8.06 22.4 0 6.97-1.17 12.69-3.52 17.15-2.35 4.46-5.74 7.93-10.17 10.42-4.44 2.48-9.97 3.72-16.58 3.72-6.73 0-12.3-1.07-16.71-3.22-4.4-2.14-7.98-5.53-10.72-10.17s-4.11-10.44-4.11-17.41Zm18.43.08c0 6.02 1.12 10.35 3.36 12.98 2.24 2.63 5.28 3.95 9.14 3.95 3.96 0 7.02-1.29 9.19-3.87s3.26-7.2 3.26-13.87c0-5.62-1.14-9.72-3.4-12.31-2.27-2.6-5.34-3.89-9.22-3.89-3.71 0-6.7 1.32-8.95 3.95-2.25 2.63-3.38 6.98-3.38 13.06Zm-1.46-43.91h10.58v10.18h-10.58v-10.18Zm17.25 0h10.7v10.18h-10.7v-10.18ZM1200.53 1222.97h27.39c5.4 0 9.75.73 13.08 2.2 3.32 1.46 6.07 3.57 8.24 6.31 2.17 2.73 3.74 5.92 4.72 9.56.97 3.63 1.46 7.48 1.46 11.55 0 6.38-.72 11.32-2.17 14.83-1.45 3.52-3.47 6.46-6.05 8.83-2.57 2.38-5.34 3.96-8.3 4.75-4.04 1.08-7.7 1.62-10.98 1.62h-27.39v-59.65Zm18.43 13.51v32.59h4.52c3.85 0 6.59-.43 8.22-1.28 1.63-.85 2.9-2.35 3.83-4.47.92-2.14 1.38-5.59 1.38-10.36 0-6.32-1.03-10.65-3.09-12.98-2.06-2.33-5.48-3.5-10.26-3.5h-4.6ZM1265.15 1222.97h34.5c5.75 0 10.17 1.42 13.25 4.27 3.08 2.85 4.62 6.38 4.62 10.58 0 3.53-1.1 6.55-3.3 9.08-1.46 1.68-3.61 3.01-6.43 3.98 4.29 1.03 7.44 2.8 9.46 5.31 2.02 2.51 3.03 5.67 3.03 9.46 0 3.1-.72 5.88-2.15 8.35a16.023 16.023 0 0 1-5.9 5.86c-1.55.89-3.88 1.54-7 1.95-4.15.54-6.91.81-8.26.81h-31.82v-59.65Zm18.59 23.4h8.02c2.87 0 4.87-.5 6-1.49s1.69-2.42 1.69-4.29c0-1.74-.56-3.09-1.69-4.07-1.13-.98-3.09-1.46-5.88-1.46h-8.14v11.31Zm0 23.44h9.4c3.18 0 5.42-.57 6.72-1.69 1.3-1.13 1.95-2.64 1.95-4.54 0-1.76-.64-3.18-1.93-4.25-1.29-1.07-3.55-1.61-6.78-1.61h-9.36v12.09ZM1330.17 1282.62v-59.65h30.72c5.7 0 10.05.49 13.06 1.46 3.01.98 5.44 2.79 7.29 5.44 1.84 2.64 2.76 5.86 2.76 9.66 0 3.31-.7 6.17-2.11 8.57-1.41 2.4-3.35 4.34-5.82 5.84-1.57.94-3.73 1.73-6.47 2.36 2.2.73 3.8 1.46 4.8 2.19.68.49 1.66 1.54 2.95 3.14 1.29 1.6 2.15 2.83 2.58 3.7l8.92 17.29h-20.84l-9.84-18.23c-1.25-2.36-2.36-3.89-3.34-4.59-1.33-.93-2.84-1.39-4.52-1.39h-1.63v24.21h-18.51Zm18.51-35.48h7.78c.84 0 2.46-.27 4.88-.81 1.22-.25 2.22-.87 2.99-1.88.77-1 1.16-2.15 1.16-3.45 0-1.93-.61-3.41-1.83-4.44-1.22-1.03-3.51-1.54-6.88-1.54h-8.1v12.12ZM1391 1252.84c0-9.74 2.71-17.32 8.14-22.75 5.43-5.42 12.98-8.14 22.67-8.14 9.92 0 17.57 2.67 22.94 8 5.37 5.33 8.06 12.8 8.06 22.4 0 6.97-1.17 12.69-3.52 17.15-2.35 4.46-5.74 7.93-10.17 10.42-4.44 2.48-9.96 3.72-16.58 3.72-6.73 0-12.3-1.07-16.71-3.22-4.4-2.14-7.98-5.53-10.72-10.17s-4.11-10.44-4.11-17.41Zm18.43.08c0 6.02 1.12 10.35 3.36 12.98 2.24 2.63 5.29 3.95 9.14 3.95 3.96 0 7.02-1.29 9.19-3.87s3.26-7.2 3.26-13.87c0-5.62-1.13-9.72-3.4-12.31-2.27-2.6-5.34-3.89-9.22-3.89-3.71 0-6.7 1.32-8.95 3.95-2.25 2.63-3.38 6.98-3.38 13.06ZM1462.54 1222.97h24.25l9.36 36.3 9.31-36.3h24.17v59.65h-15.05v-45.49l-11.68 45.49h-13.63l-11.64-45.49v45.49h-15.09v-59.65ZM1538.18 1262.89l17.54-1.1c.38 2.85 1.15 5.02 2.32 6.51 1.89 2.41 4.61 3.62 8.13 3.62 2.64 0 4.66-.62 6.09-1.85 1.42-1.23 2.13-2.67 2.13-4.29 0-1.55-.67-2.93-2.03-4.15-1.36-1.23-4.5-2.38-9.44-3.46-8.09-1.82-13.85-4.23-17.3-7.25-3.47-3.01-5.2-6.84-5.2-11.51 0-3.07.89-5.96 2.66-8.69 1.78-2.72 4.45-4.87 8.02-6.43 3.56-1.56 8.46-2.34 14.67-2.34 7.62 0 13.43 1.42 17.43 4.25 4 2.84 6.38 7.35 7.14 13.54l-17.37 1.01c-.46-2.68-1.43-4.64-2.91-5.86-1.48-1.22-3.52-1.83-6.13-1.83-2.14 0-3.75.46-4.84 1.36-1.08.91-1.62 2.02-1.62 3.32 0 .95.44 1.81 1.34 2.56.87.79 2.93 1.52 6.18 2.2 8.06 1.74 13.83 3.49 17.32 5.27 3.48 1.78 6.02 3.98 7.61 6.61 1.58 2.64 2.38 5.58 2.38 8.83 0 3.83-1.06 7.35-3.18 10.58-2.11 3.23-5.07 5.68-8.87 7.35-3.8 1.67-8.58 2.5-14.36 2.5-10.15 0-17.17-1.95-21.08-5.86-3.91-3.91-6.12-8.87-6.63-14.89Z" style="fill:#fff;fill-rule:nonzero" transform="matrix(.86738 0 0 1 -701.76 -243.623)"/>
  <path d="M586.64 1324.01H311.06c-38.82 0-62.97-8.75-77.47-21.06-14.91-12.66-19.88-29.17-19.88-44.58 0-9.11 4.2-21.16 10.59-34.07 14.37-29.06 39.71-62.81 48.96-76.59 4.57-6.8 14.35-11.65 22.54-11.65h306.1c8.19 0 17.97 4.85 22.53 11.65 9.26 13.78 34.59 47.53 48.97 76.59 6.39 12.91 10.59 24.96 10.59 34.07 0 15.41-4.97 31.92-19.88 44.58-14.5 12.31-38.66 21.06-77.47 21.06Zm0-6.25c36.74 0 59.7-7.92 73.42-19.58 13.31-11.3 17.68-26.05 17.68-39.81 0-11.28-7.25-27.31-16.58-43.75-14.43-25.43-34.04-51.71-41.91-63.42-3.51-5.23-11.06-8.89-17.35-8.89H295.8c-6.3 0-13.84 3.66-17.35 8.89-7.87 11.71-27.49 37.99-41.91 63.42-9.33 16.44-16.58 32.47-16.58 43.75 0 13.76 4.37 28.51 17.67 39.81 13.73 11.66 36.69 19.58 73.43 19.58h275.58Z"/>
</svg>
